<?xml version="1.0" encoding="UTF-8" standalone="no"?>
<svg
   width="16"
   height="16"
   viewBox="0 0 16 16"
   fill="none"
   version="1.1"
   id="svg2"
   sodipodi:docname="Mouth Favicon.svg"
   inkscape:version="1.3 (0e150ed6c4, 2023-07-21)"
   inkscape:export-filename="Mouth Op.svg"
   inkscape:export-xdpi="96"
   inkscape:export-ydpi="96"
   xmlns:inkscape="http://www.inkscape.org/namespaces/inkscape"
   xmlns:sodipodi="http://sodipodi.sourceforge.net/DTD/sodipodi-0.dtd"
   xmlns="http://www.w3.org/2000/svg"
   xmlns:svg="http://www.w3.org/2000/svg">
  <defs
     id="defs2" />
  <sodipodi:namedview
     id="namedview2"
     pagecolor="#ffffff"
     bordercolor="#000000"
     borderopacity="0.25"
     inkscape:showpageshadow="true"
     inkscape:pageopacity="0.0"
     inkscape:pagecheckerboard="true"
     inkscape:deskcolor="#d1d1d1"
     showguides="true"
     inkscape:zoom="34.780815"
     inkscape:cx="7.9929122"
     inkscape:cy="8.0072879"
     inkscape:window-width="1920"
     inkscape:window-height="1001"
     inkscape:window-x="-9"
     inkscape:window-y="-9"
     inkscape:window-maximized="1"
     inkscape:current-layer="svg2"
     shape-rendering="auto"
     inkscape:clip-to-page="false"
     borderlayer="true"
     showborder="true" />
  <rect
     style="fill:#ef70a1;fill-opacity:1;stroke:none;stroke-width:0.289281"
     id="rect1"
     width="15.618037"
     height="16"
     x="0.19098139"
     y="-2.220446e-16"
     ry="2.3915117" />
  <path
     fill="#271916"
     d="M 4.6604914,8.7717611 C 4.5525413,8.2371852 4.2079986,7.7684827 3.9883049,7.2746034 3.7334329,6.7014001 3.6875627,6.1154359 3.7768889,5.4932584 3.9093259,4.5710293 4.5804774,2.5789578 5.784135,2.6113774 6.4577006,2.6296559 7.0440101,2.9369511 7.6992964,3.0114471 8.5818643,3.1114646 9.3188888,2.6627654 10.19042,2.6096525 c 0.593897,-0.036214 1.027766,0.4480093 1.311263,0.9046404 q 0.549406,0.8846369 0.723919,2.0293192 0.160718,1.0529419 -0.333851,1.9868977 C 11.684129,7.9223028 11.43512,8.3185791 11.341656,8.755206 q -0.03311,0.1548546 -0.04173,0.4766356 C 11.2675,10.438259 10.943995,11.803325 10.273878,12.824881 10.069706,13.135971 9.7620641,13.454991 9.38062,13.377737 9.0740146,13.316005 8.9519242,13.032159 8.9150214,12.751421 q -0.0507,-0.390068 -0.043115,-0.78324 c 0.014492,-0.749786 0.00831,-1.500607 0.00793,-2.2503924 Q 8.8794894,9.4001464 8.8291403,9.2552932 C 8.5539237,8.4610172 7.4320037,8.4872288 7.164371,9.2759878 q -0.044835,0.131402 -0.045178,0.3514407 -0.00204,1.2991925 0.00138,2.5980395 c 9.947e-4,0.411797 -0.022074,1.159858 -0.6118308,1.166755 -0.4869813,0.0058 -0.8701513,-0.662529 -1.0453547,-1.024316 Q 4.7553283,10.903857 4.7004911,9.2846097 4.6880757,8.9076475 4.6604835,8.7717611 Z M 5.0519387,3.4908409 C 4.4632151,4.2575257 4.077631,5.4366971 4.1904092,6.3882419 4.2952553,7.2721892 4.9515767,7.8885039 5.1029821,8.7569314 q 0.023798,0.1376098 0.037594,0.5752723 c 0.034835,1.0957083 0.3376444,2.2521173 0.9167112,3.1902123 0.059318,0.09657 0.3942066,0.601829 0.5200905,0.375927 0.098293,-0.176583 0.1051908,-0.472496 0.1048461,-0.67598 q -0.00245,-1.261255 -0.00277,-2.5228533 0,-0.3245402 0.047251,-0.4962939 C 6.8629343,8.7062325 7.2581759,8.3499629 7.7589529,8.248911 8.4163086,8.1164744 9.0971165,8.5468945 9.2695608,9.1925246 q 0.049658,0.1865833 0.049658,0.5866531 c -3.506e-4,0.6925353 0.002,1.3854153 -0.00621,2.0779483 -0.00277,0.228316 -0.028975,0.908781 0.1355406,1.070531 a 0.09036057,0.09001569 54.8 0 0 0.1007082,0.01759 C 9.7117021,12.871437 9.8355169,12.69624 9.9520882,12.505172 10.51805,11.576389 10.818791,10.43895 10.857074,9.3584155 q 0.01725,-0.48974 0.03724,-0.6097611 C 11.026413,7.9471321 11.603065,7.3739289 11.77068,6.595862 11.860004,6.1799278 11.829653,5.7353676 11.744465,5.3108109 Q 11.562718,4.40065 11.054698,3.6436221 C 10.911225,3.4297915 10.715329,3.1956128 10.474251,3.0914565 10.333538,3.0307588 10.156611,3.0435189 10.008998,3.0642135 9.403376,3.1490555 8.8298271,3.419792 8.2069603,3.4601443 Q 7.6858353,3.4939421 7.1750563,3.3570229 C 6.6956624,3.2283796 6.2266152,3.0597299 5.7237688,3.053177 5.4582055,3.0500744 5.2136802,3.2804581 5.0519275,3.490839 Z"
     id="path36"
     style="fill:#ffffff;fill-opacity:1;stroke-width:0.0344887" />
  <path
     fill="#271916"
     d="M 4.3147939,8.8216204 C 4.1956692,8.2525086 3.8154603,7.7535259 3.5730244,7.2277398 3.2917688,6.6175049 3.2411502,5.9936849 3.3397232,5.331312 3.4858698,4.3495028 4.2264971,2.2287347 5.5547543,2.2632488 6.2980458,2.2827082 6.9450485,2.609856 7.6681684,2.6891648 8.6420975,2.7956439 9.455417,2.3179567 10.417167,2.2614124 c 0.655376,-0.038554 1.134157,0.4769527 1.447002,0.9630842 q 0.606278,0.9417883 0.798857,2.1604222 0.177355,1.1209666 -0.368411,2.11526 c -0.229114,0.4171046 -0.5039,0.8389821 -0.607039,1.303817 q -0.03653,0.1648588 -0.04605,0.5074283 C 11.605748,10.595781 11.24875,12.049037 10.509264,13.136589 10.283957,13.467777 9.9444681,13.807407 9.5235384,13.725163 9.185194,13.659439 9.0504652,13.357259 9.0097422,13.058383 q -0.055948,-0.415268 -0.047579,-0.83384 c 0.015992,-0.798226 0.00917,-1.597553 0.00875,-2.3957776 Q 8.9705311,9.4906022 8.9149701,9.3363908 C 8.6112645,8.490801 7.3732063,8.518706 7.0778689,9.3584224 q -0.049477,0.1398911 -0.049854,0.3741453 -0.00226,1.3831253 0.00152,2.7658843 c 0.0011,0.438401 -0.02436,1.23479 -0.675166,1.242133 -0.5373923,0.0062 -0.9602271,-0.705331 -1.1535672,-1.090492 Q 4.4194482,11.091459 4.3589344,9.3676013 4.3452338,8.9662857 4.3147852,8.8216204 Z M 4.746763,3.1995296 C 4.0970962,4.0157456 3.6715973,5.2710966 3.7960501,6.2841154 3.9117496,7.2251696 4.6360117,7.8813009 4.8030902,8.8058326 q 0.026262,0.1465 0.041486,0.6124375 c 0.038441,1.1664959 0.3725966,2.3976139 1.0116069,3.3963139 0.065458,0.10281 0.4350139,0.640709 0.573929,0.400213 0.108468,-0.187991 0.1160798,-0.50302 0.1156995,-0.71965 q -0.00271,-1.342739 -0.00305,-2.6858413 0,-0.345507 0.052143,-0.5283567 C 6.7452282,8.7518583 7.1813843,8.3725721 7.7340005,8.2649918 8.459404,8.1239993 9.2106873,8.5822265 9.4009826,9.2695671 q 0.054798,0.1986374 0.054798,0.6245534 c -3.869e-4,0.7372765 0.0022,1.4749185 -0.00685,2.2121935 -0.00305,0.243066 -0.031975,0.967491 0.1495715,1.139691 a 0.09946949,0.09606713 2.9699938 0 0 0.1111332,0.01873 c 0.1792603,-0.07858 0.3158917,-0.265094 0.4445307,-0.468506 0.624548,-0.988787 0.956421,-2.199709 0.998668,-3.3500507 q 0.01903,-0.5213793 0.0411,-0.6491543 C 11.339708,7.9437188 11.976053,7.3334842 12.16102,6.5051507 12.25959,6.0623453 12.2261,5.5890645 12.13209,5.1370796 Q 11.931522,4.1681163 11.370913,3.362181 C 11.212588,3.134536 10.996413,2.8852283 10.730379,2.7743432 10.5751,2.7097241 10.379858,2.7233086 10.216964,2.7453401 9.54865,2.8356632 8.9157289,3.1238905 8.2283845,3.1668498 Q 7.6533139,3.202831 7.0896603,3.0570662 C 6.5606408,2.9201121 6.043039,2.7405668 5.4881392,2.7335906 5.1950854,2.7302875 4.9252475,2.975555 4.7467506,3.1995275 Z"
     id="path1"
     style="fill:#ffffff;fill-opacity:1;stroke-width:0.0373818" />
</svg>
