<?xml version="1.0" encoding="UTF-8" standalone="no"?>
<svg
   width="184"
   height="58"
   viewBox="0 0 184 58"
   fill="none"
   version="1.1"
   id="svg2"
   sodipodi:docname="Mouth Logo.svg"
   inkscape:version="1.3 (0e150ed6c4, 2023-07-21)"
   inkscape:export-filename="Mouth Op.svg"
   inkscape:export-xdpi="96"
   inkscape:export-ydpi="96"
   xmlns:inkscape="http://www.inkscape.org/namespaces/inkscape"
   xmlns:sodipodi="http://sodipodi.sourceforge.net/DTD/sodipodi-0.dtd"
   xmlns="http://www.w3.org/2000/svg"
   xmlns:svg="http://www.w3.org/2000/svg">
  <defs
     id="defs2" />
  <sodipodi:namedview
     id="namedview2"
     pagecolor="#ffffff"
     bordercolor="#000000"
     borderopacity="0.25"
     inkscape:showpageshadow="true"
     inkscape:pageopacity="0.0"
     inkscape:pagecheckerboard="true"
     inkscape:deskcolor="#d1d1d1"
     showguides="true"
     inkscape:zoom="5.6521739"
     inkscape:cx="91.469231"
     inkscape:cy="28.926923"
     inkscape:window-width="1920"
     inkscape:window-height="1001"
     inkscape:window-x="-9"
     inkscape:window-y="-9"
     inkscape:window-maximized="1"
     inkscape:current-layer="svg2"
     shape-rendering="auto"
     inkscape:clip-to-page="false"
     borderlayer="true"
     showborder="true" />
  <rect
     style="fill:#ef70a1;stroke:none;stroke-width:0.851678;fill-opacity:1"
     id="rect1"
     width="43.848324"
     height="49.397335"
     x="3.8181469"
     y="4.3013339"
     ry="7.3833942" />
  <path
     fill="#271916"
     d="M 13.342066,31.8657 C 12.941227,29.880717 11.661873,28.140334 10.846109,26.306465 9.8997201,24.17805 9.7293961,22.002252 10.06108,19.691987 10.552844,16.26757 13.044959,8.8706243 17.514374,8.9910043 c 2.501079,0.06787 4.678158,1.2089187 7.111364,1.4855357 3.277145,0.371384 6.013861,-1.2947217 9.250025,-1.4919397 2.205253,-0.134466 3.816291,1.6635447 4.868973,3.3591047 q 2.040051,3.284828 2.688052,7.535255 0.596776,3.909777 -1.239654,7.377736 c -0.770942,1.454801 -1.695561,2.92625 -2.042613,4.547534 q -0.122941,0.575005 -0.154957,1.769837 c -0.120379,4.47966 -1.321615,9.548412 -3.809888,13.341652 -0.758135,1.155133 -1.900462,2.33972 -3.316844,2.052858 -1.138484,-0.229234 -1.591828,-1.283196 -1.728856,-2.325633 q -0.188254,-1.448398 -0.16008,-2.908321 c 0.05379,-2.7841 0.03074,-5.572042 0.02945,-8.356142 q -0.0013,-1.179464 -0.188253,-1.717331 c -1.021947,-2.949301 -5.187852,-2.851973 -6.181624,0.07684 q -0.166483,0.487922 -0.167763,1.304967 -0.0077,4.824151 0.0051,9.647021 c 0.0038,1.529078 -0.08196,4.306775 -2.271846,4.332387 -1.808256,0.02177 -3.231041,-2.460099 -3.881603,-3.803485 q -2.629143,-5.436294 -2.832764,-11.448874 -0.0461,-1.399734 -0.148554,-1.904304 z m 1.45352,-19.609078 c -2.186043,2.846851 -3.617792,7.225341 -3.199025,10.758612 0.389313,3.282267 2.826361,5.570761 3.388559,8.795399 q 0.08836,0.510973 0.13959,2.136099 c 0.129344,4.068576 1.253741,8.362544 3.403927,11.845871 0.220269,0.358577 1.463765,2.234707 1.931197,1.395891 0.364981,-0.655685 0.390593,-1.754469 0.389313,-2.510044 q -0.009,-4.683281 -0.01025,-9.367842 0,-1.205078 0.175447,-1.842834 c 0.50585,-1.845394 1.973458,-3.16829 3.832939,-3.543516 2.44089,-0.491763 4.968863,1.106469 5.60918,3.503817 q 0.184411,0.692823 0.184411,2.178359 c -0.0013,2.571515 0.0077,5.14431 -0.02305,7.715824 -0.01024,0.84778 -0.107573,3.374473 0.503289,3.97509 a 0.33552629,0.33424565 54.8 0 0 0.373946,0.06531 c 0.603179,-0.274056 1.062927,-0.924618 1.495781,-1.63409 2.101522,-3.448749 3.218235,-7.672282 3.360386,-11.684511 q 0.06403,-1.818501 0.138308,-2.264162 c 0.490483,-2.976195 2.631704,-5.10461 3.254093,-7.993722 0.331684,-1.544445 0.218988,-3.195183 -0.09733,-4.771645 q -0.674895,-3.379595 -2.56127,-6.190588 c -0.532744,-0.793993 -1.260144,-1.663544 -2.155308,-2.050296 -0.522499,-0.225392 -1.179465,-0.178008 -1.727576,-0.10117 -2.248795,0.315036 -4.37849,1.320334 -6.691316,1.470169 q -1.935039,0.125502 -3.831659,-0.38291 c -1.780083,-0.477677 -3.521746,-1.103907 -5.388911,-1.128239 -0.986089,-0.01153 -1.894059,0.843938 -2.494677,1.625125 z"
     id="path36"
     style="fill:#ffffff;fill-opacity:1;stroke-width:0.128063" />
  <path
     style="font-size:28.303px;font-family:Consolas;-inkscape-font-specification:Consolas;fill:#ffffff;stroke:#ffffff;stroke-width:2.3586"
     d="m 121.73963,38.763705 h -2.40465 v -8.858507 q 0,-1.6031 -0.60807,-2.39083 -0.59425,-0.801549 -1.71366,-0.801549 -0.48369,0 -0.9121,0.138198 -0.4146,0.124378 -0.87065,0.456054 -0.45606,0.317856 -0.99503,0.870649 -0.53897,0.552793 -1.24378,1.381982 v 9.204003 h -2.40465 v -19.52741 h 2.40465 v 5.652308 l -0.0829,2.183532 q 0.56661,-0.677171 1.10558,-1.133225 0.5528,-0.469874 1.09177,-0.760091 0.55279,-0.290216 1.1194,-0.414594 0.56662,-0.124379 1.17469,-0.124379 2.07297,0 3.2062,1.271424 1.13322,1.257604 1.13322,3.800451 z"
     id="path3" />
  <path
     style="font-size:28.303px;font-family:Consolas;-inkscape-font-specification:Consolas;fill:#ffffff;stroke:#ffffff;stroke-width:2.3586"
     d="m 103.73498,38.570228 q -0.81537,0.207297 -1.68602,0.290216 -0.87065,0.09674 -1.76894,0.09674 -2.611944,0 -3.897194,-1.174685 -1.285241,-1.188505 -1.285241,-3.634614 v -7.241588 h -3.88337 v -2.017695 h 3.88337 v -3.814271 l 2.404651,-0.621893 v 4.436164 h 6.232744 v 2.017694 h -6.232744 v 7.04811 q 0,1.492541 0.78773,2.238812 0.80155,0.732451 2.349374,0.732451 0.66335,0 1.45108,-0.09674 0.78773,-0.110559 1.64456,-0.331676 z"
     id="path2" />
  <path
     style="font-size:28.303px;font-family:Consolas;-inkscape-font-specification:Consolas;fill:#ffffff;stroke:#ffffff;stroke-width:2.3586"
     d="m 84.362158,38.763705 h -2.155893 l -0.08292,-2.23881 q -0.621892,0.718631 -1.188504,1.202323 -0.552793,0.469874 -1.105586,0.760092 -0.552793,0.290216 -1.119406,0.400775 -0.552793,0.124378 -1.174685,0.124378 -2.142073,0 -3.233839,-1.257604 -1.091766,-1.257604 -1.091766,-3.800452 v -9.065805 h 2.404649 v 8.872328 q 0,3.192379 2.40465,3.192379 0.442234,0 0.856829,-0.124378 0.428414,-0.138198 0.884469,-0.456054 0.469874,-0.331676 0.995027,-0.88447 0.538973,-0.552793 1.202325,-1.395802 v -9.204003 h 2.404649 z"
     id="path1" />
  <path
     style="font-size:28.303px;font-family:Consolas;-inkscape-font-specification:Consolas;fill:#ffffff;stroke:#ffffff;stroke-width:2.3586"
     d="m 66.357502,31.839974 q 0,1.616919 -0.456054,2.971262 -0.456054,1.340522 -1.312883,2.30791 -0.856829,0.953568 -2.086794,1.492542 -1.229964,0.525153 -2.791604,0.525153 -1.492541,0 -2.681046,-0.456054 -1.174685,-0.469874 -2.003874,-1.368164 -0.81537,-0.898288 -1.257604,-2.224991 -0.428415,-1.326704 -0.428415,-3.054182 0,-1.616918 0.456054,-2.943622 0.456054,-1.340523 1.312884,-2.294091 0.856829,-0.967386 2.086793,-1.49254 1.229964,-0.538973 2.791604,-0.538973 1.492541,0 2.667226,0.469874 1.188505,0.456054 2.003875,1.354343 0.829189,0.884469 1.257604,2.211172 0.442234,1.326703 0.442234,3.040361 z m -2.459928,0.110558 q 0,-1.285243 -0.290217,-2.238811 -0.276396,-0.967388 -0.80155,-1.603101 -0.525153,-0.649531 -1.285243,-0.967386 -0.746271,-0.331677 -1.672199,-0.331677 -1.077946,0 -1.851856,0.428416 -0.760091,0.414594 -1.257604,1.119405 -0.483694,0.70481 -0.718631,1.644559 -0.221117,0.925929 -0.221117,1.948595 0,1.285244 0.276396,2.252632 0.290217,0.967388 0.81537,1.616919 0.525153,0.635712 1.271424,0.967388 0.74627,0.317856 1.686018,0.317856 1.077946,0 1.838037,-0.414595 0.77391,-0.428414 1.257604,-1.133225 0.497513,-0.704811 0.718631,-1.630741 0.234937,-0.939748 0.234937,-1.976234 z"
     id="text3" />
</svg>
